<mxfile host="Electron" modified="2023-06-27T08:52:55.737Z" agent="Mozilla/5.0 (Macintosh; Intel Mac OS X 10_15_7) AppleWebKit/537.36 (KHTML, like Gecko) draw.io/21.5.0 Chrome/112.0.5615.204 Electron/24.5.1 Safari/537.36" etag="RRvtgWtPRiOoh8fNILt5" version="21.5.0" type="device" pages="5">
  <diagram name="Page-1" id="K2b1z7TsnjjG2Ht8CRaW">
    <mxGraphModel dx="901" dy="751" grid="1" gridSize="10" guides="1" tooltips="1" connect="1" arrows="1" fold="1" page="1" pageScale="1" pageWidth="1100" pageHeight="850" math="0" shadow="0">
      <root>
        <mxCell id="0" />
        <mxCell id="1" value="red" parent="0" />
        <mxCell id="21CGFyP4movN_8PWDQF2-11" style="edgeStyle=orthogonalEdgeStyle;rounded=0;orthogonalLoop=1;jettySize=auto;html=1;exitX=1;exitY=0.5;exitDx=0;exitDy=0;entryX=0;entryY=0.5;entryDx=0;entryDy=0;fillColor=#f8cecc;strokeColor=#b85450;" parent="1" source="21CGFyP4movN_8PWDQF2-12" target="21CGFyP4movN_8PWDQF2-14" edge="1">
          <mxGeometry relative="1" as="geometry" />
        </mxCell>
        <mxCell id="21CGFyP4movN_8PWDQF2-12" value="" style="rounded=1;whiteSpace=wrap;html=1;fillColor=#f8cecc;strokeColor=#b85450;" parent="1" vertex="1">
          <mxGeometry x="80" y="320" width="120" height="60" as="geometry" />
        </mxCell>
        <mxCell id="21CGFyP4movN_8PWDQF2-13" style="edgeStyle=orthogonalEdgeStyle;rounded=0;orthogonalLoop=1;jettySize=auto;html=1;entryX=0;entryY=0.5;entryDx=0;entryDy=0;fillColor=#f8cecc;strokeColor=#b85450;" parent="1" source="21CGFyP4movN_8PWDQF2-14" target="21CGFyP4movN_8PWDQF2-15" edge="1">
          <mxGeometry relative="1" as="geometry" />
        </mxCell>
        <mxCell id="21CGFyP4movN_8PWDQF2-14" value="" style="rhombus;whiteSpace=wrap;html=1;rounded=1;fillColor=#f8cecc;strokeColor=#b85450;" parent="1" vertex="1">
          <mxGeometry x="270" y="310" width="80" height="80" as="geometry" />
        </mxCell>
        <mxCell id="21CGFyP4movN_8PWDQF2-15" value="" style="rounded=1;whiteSpace=wrap;html=1;fillColor=#f8cecc;strokeColor=#b85450;" parent="1" vertex="1">
          <mxGeometry x="420" y="320" width="120" height="60" as="geometry" />
        </mxCell>
        <mxCell id="21CGFyP4movN_8PWDQF2-16" value="green" parent="0" />
        <mxCell id="21CGFyP4movN_8PWDQF2-6" style="edgeStyle=orthogonalEdgeStyle;rounded=0;orthogonalLoop=1;jettySize=auto;html=1;exitX=1;exitY=0.5;exitDx=0;exitDy=0;entryX=0;entryY=0.5;entryDx=0;entryDy=0;fillColor=#d5e8d4;strokeColor=#82b366;" parent="21CGFyP4movN_8PWDQF2-16" source="21CGFyP4movN_8PWDQF2-7" target="21CGFyP4movN_8PWDQF2-9" edge="1">
          <mxGeometry relative="1" as="geometry" />
        </mxCell>
        <mxCell id="21CGFyP4movN_8PWDQF2-7" value="" style="rounded=1;whiteSpace=wrap;html=1;fillColor=#d5e8d4;strokeColor=#82b366;" parent="21CGFyP4movN_8PWDQF2-16" vertex="1">
          <mxGeometry x="80" y="190" width="120" height="60" as="geometry" />
        </mxCell>
        <mxCell id="21CGFyP4movN_8PWDQF2-8" style="edgeStyle=orthogonalEdgeStyle;rounded=0;orthogonalLoop=1;jettySize=auto;html=1;entryX=0;entryY=0.5;entryDx=0;entryDy=0;fillColor=#d5e8d4;strokeColor=#82b366;" parent="21CGFyP4movN_8PWDQF2-16" source="21CGFyP4movN_8PWDQF2-9" target="21CGFyP4movN_8PWDQF2-10" edge="1">
          <mxGeometry relative="1" as="geometry" />
        </mxCell>
        <mxCell id="21CGFyP4movN_8PWDQF2-9" value="" style="rhombus;whiteSpace=wrap;html=1;rounded=1;fillColor=#d5e8d4;strokeColor=#82b366;" parent="21CGFyP4movN_8PWDQF2-16" vertex="1">
          <mxGeometry x="270" y="180" width="80" height="80" as="geometry" />
        </mxCell>
        <mxCell id="21CGFyP4movN_8PWDQF2-10" value="" style="rounded=1;whiteSpace=wrap;html=1;fillColor=#d5e8d4;strokeColor=#82b366;" parent="21CGFyP4movN_8PWDQF2-16" vertex="1">
          <mxGeometry x="420" y="190" width="120" height="60" as="geometry" />
        </mxCell>
        <mxCell id="21CGFyP4movN_8PWDQF2-17" value="blue" parent="0" />
        <mxCell id="21CGFyP4movN_8PWDQF2-4" style="edgeStyle=orthogonalEdgeStyle;rounded=0;orthogonalLoop=1;jettySize=auto;html=1;exitX=1;exitY=0.5;exitDx=0;exitDy=0;entryX=0;entryY=0.5;entryDx=0;entryDy=0;fillColor=#dae8fc;strokeColor=#6c8ebf;" parent="21CGFyP4movN_8PWDQF2-17" source="21CGFyP4movN_8PWDQF2-1" target="21CGFyP4movN_8PWDQF2-2" edge="1">
          <mxGeometry relative="1" as="geometry" />
        </mxCell>
        <mxCell id="21CGFyP4movN_8PWDQF2-1" value="" style="rounded=1;whiteSpace=wrap;html=1;fillColor=#dae8fc;strokeColor=#6c8ebf;" parent="21CGFyP4movN_8PWDQF2-17" vertex="1">
          <mxGeometry x="80" y="80" width="120" height="60" as="geometry" />
        </mxCell>
        <mxCell id="21CGFyP4movN_8PWDQF2-5" style="edgeStyle=orthogonalEdgeStyle;rounded=0;orthogonalLoop=1;jettySize=auto;html=1;entryX=0;entryY=0.5;entryDx=0;entryDy=0;fillColor=#dae8fc;strokeColor=#6c8ebf;" parent="21CGFyP4movN_8PWDQF2-17" source="21CGFyP4movN_8PWDQF2-2" target="21CGFyP4movN_8PWDQF2-3" edge="1">
          <mxGeometry relative="1" as="geometry" />
        </mxCell>
        <mxCell id="21CGFyP4movN_8PWDQF2-2" value="" style="rhombus;whiteSpace=wrap;html=1;rounded=1;fillColor=#dae8fc;strokeColor=#6c8ebf;" parent="21CGFyP4movN_8PWDQF2-17" vertex="1">
          <mxGeometry x="270" y="70" width="80" height="80" as="geometry" />
        </mxCell>
        <mxCell id="21CGFyP4movN_8PWDQF2-3" value="" style="rounded=1;whiteSpace=wrap;html=1;fillColor=#dae8fc;strokeColor=#6c8ebf;" parent="21CGFyP4movN_8PWDQF2-17" vertex="1">
          <mxGeometry x="420" y="80" width="120" height="60" as="geometry" />
        </mxCell>
      </root>
    </mxGraphModel>
  </diagram>
  <diagram name="Copy of Page-1" id="jioEHlUh7MmZyYwZ0kOL">
    <mxGraphModel dx="1007" dy="750" grid="1" gridSize="10" guides="1" tooltips="1" connect="1" arrows="1" fold="1" page="1" pageScale="1" pageWidth="1100" pageHeight="850" math="0" shadow="0">
      <root>
        <mxCell id="JoC722UquPzWMbg3fsc--0" />
        <mxCell id="JoC722UquPzWMbg3fsc--1" value="red" parent="JoC722UquPzWMbg3fsc--0" />
        <mxCell id="JoC722UquPzWMbg3fsc--2" style="edgeStyle=orthogonalEdgeStyle;rounded=0;orthogonalLoop=1;jettySize=auto;html=1;exitX=1;exitY=0.5;exitDx=0;exitDy=0;entryX=0;entryY=0.5;entryDx=0;entryDy=0;fillColor=#f8cecc;strokeColor=#b85450;" edge="1" parent="JoC722UquPzWMbg3fsc--1" source="JoC722UquPzWMbg3fsc--3" target="JoC722UquPzWMbg3fsc--5">
          <mxGeometry relative="1" as="geometry" />
        </mxCell>
        <mxCell id="JoC722UquPzWMbg3fsc--3" value="" style="rounded=1;whiteSpace=wrap;html=1;fillColor=#f8cecc;strokeColor=#b85450;" vertex="1" parent="JoC722UquPzWMbg3fsc--1">
          <mxGeometry x="80" y="320" width="120" height="60" as="geometry" />
        </mxCell>
        <mxCell id="JoC722UquPzWMbg3fsc--4" style="edgeStyle=orthogonalEdgeStyle;rounded=0;orthogonalLoop=1;jettySize=auto;html=1;entryX=0;entryY=0.5;entryDx=0;entryDy=0;fillColor=#f8cecc;strokeColor=#b85450;" edge="1" parent="JoC722UquPzWMbg3fsc--1" source="JoC722UquPzWMbg3fsc--5" target="JoC722UquPzWMbg3fsc--6">
          <mxGeometry relative="1" as="geometry" />
        </mxCell>
        <mxCell id="JoC722UquPzWMbg3fsc--5" value="" style="rhombus;whiteSpace=wrap;html=1;rounded=1;fillColor=#f8cecc;strokeColor=#b85450;" vertex="1" parent="JoC722UquPzWMbg3fsc--1">
          <mxGeometry x="270" y="310" width="80" height="80" as="geometry" />
        </mxCell>
        <mxCell id="JoC722UquPzWMbg3fsc--6" value="" style="rounded=1;whiteSpace=wrap;html=1;fillColor=#f8cecc;strokeColor=#b85450;" vertex="1" parent="JoC722UquPzWMbg3fsc--1">
          <mxGeometry x="420" y="320" width="120" height="60" as="geometry" />
        </mxCell>
        <mxCell id="JoC722UquPzWMbg3fsc--7" style="edgeStyle=orthogonalEdgeStyle;rounded=0;orthogonalLoop=1;jettySize=auto;html=1;exitX=0.5;exitY=1;exitDx=0;exitDy=0;" edge="1" parent="JoC722UquPzWMbg3fsc--1" source="JoC722UquPzWMbg3fsc--19" target="JoC722UquPzWMbg3fsc--6">
          <mxGeometry relative="1" as="geometry">
            <Array as="points">
              <mxPoint x="480" y="160" />
              <mxPoint x="380" y="160" />
              <mxPoint x="380" y="290" />
              <mxPoint x="480" y="290" />
            </Array>
          </mxGeometry>
        </mxCell>
        <mxCell id="JoC722UquPzWMbg3fsc--8" value="green" parent="JoC722UquPzWMbg3fsc--0" />
        <mxCell id="JoC722UquPzWMbg3fsc--9" style="edgeStyle=orthogonalEdgeStyle;rounded=0;orthogonalLoop=1;jettySize=auto;html=1;exitX=1;exitY=0.5;exitDx=0;exitDy=0;entryX=0;entryY=0.5;entryDx=0;entryDy=0;fillColor=#d5e8d4;strokeColor=#82b366;" edge="1" parent="JoC722UquPzWMbg3fsc--8" source="JoC722UquPzWMbg3fsc--10" target="JoC722UquPzWMbg3fsc--12">
          <mxGeometry relative="1" as="geometry" />
        </mxCell>
        <mxCell id="JoC722UquPzWMbg3fsc--10" value="" style="rounded=1;whiteSpace=wrap;html=1;fillColor=#d5e8d4;strokeColor=#82b366;" vertex="1" parent="JoC722UquPzWMbg3fsc--8">
          <mxGeometry x="80" y="190" width="120" height="60" as="geometry" />
        </mxCell>
        <mxCell id="JoC722UquPzWMbg3fsc--11" style="edgeStyle=orthogonalEdgeStyle;rounded=0;orthogonalLoop=1;jettySize=auto;html=1;entryX=0;entryY=0.5;entryDx=0;entryDy=0;fillColor=#d5e8d4;strokeColor=#82b366;" edge="1" parent="JoC722UquPzWMbg3fsc--8" source="JoC722UquPzWMbg3fsc--12" target="JoC722UquPzWMbg3fsc--13">
          <mxGeometry relative="1" as="geometry" />
        </mxCell>
        <mxCell id="JoC722UquPzWMbg3fsc--12" value="" style="rhombus;whiteSpace=wrap;html=1;rounded=1;fillColor=#d5e8d4;strokeColor=#82b366;" vertex="1" parent="JoC722UquPzWMbg3fsc--8">
          <mxGeometry x="270" y="180" width="80" height="80" as="geometry" />
        </mxCell>
        <mxCell id="JoC722UquPzWMbg3fsc--13" value="" style="rounded=1;whiteSpace=wrap;html=1;fillColor=#d5e8d4;strokeColor=#82b366;" vertex="1" parent="JoC722UquPzWMbg3fsc--8">
          <mxGeometry x="420" y="190" width="120" height="60" as="geometry" />
        </mxCell>
        <mxCell id="JoC722UquPzWMbg3fsc--14" value="blue" parent="JoC722UquPzWMbg3fsc--0" />
        <mxCell id="JoC722UquPzWMbg3fsc--15" style="edgeStyle=orthogonalEdgeStyle;rounded=0;orthogonalLoop=1;jettySize=auto;html=1;exitX=1;exitY=0.5;exitDx=0;exitDy=0;entryX=0;entryY=0.5;entryDx=0;entryDy=0;fillColor=#dae8fc;strokeColor=#6c8ebf;" edge="1" parent="JoC722UquPzWMbg3fsc--14" source="JoC722UquPzWMbg3fsc--16" target="JoC722UquPzWMbg3fsc--18">
          <mxGeometry relative="1" as="geometry" />
        </mxCell>
        <mxCell id="JoC722UquPzWMbg3fsc--16" value="" style="rounded=1;whiteSpace=wrap;html=1;fillColor=#dae8fc;strokeColor=#6c8ebf;" vertex="1" parent="JoC722UquPzWMbg3fsc--14">
          <mxGeometry x="80" y="80" width="120" height="60" as="geometry" />
        </mxCell>
        <mxCell id="JoC722UquPzWMbg3fsc--17" style="edgeStyle=orthogonalEdgeStyle;rounded=0;orthogonalLoop=1;jettySize=auto;html=1;entryX=0;entryY=0.5;entryDx=0;entryDy=0;fillColor=#dae8fc;strokeColor=#6c8ebf;" edge="1" parent="JoC722UquPzWMbg3fsc--14" source="JoC722UquPzWMbg3fsc--18" target="JoC722UquPzWMbg3fsc--19">
          <mxGeometry relative="1" as="geometry" />
        </mxCell>
        <mxCell id="JoC722UquPzWMbg3fsc--18" value="" style="rhombus;whiteSpace=wrap;html=1;rounded=1;fillColor=#dae8fc;strokeColor=#6c8ebf;" vertex="1" parent="JoC722UquPzWMbg3fsc--14">
          <mxGeometry x="270" y="70" width="80" height="80" as="geometry" />
        </mxCell>
        <mxCell id="JoC722UquPzWMbg3fsc--19" value="" style="rounded=1;whiteSpace=wrap;html=1;fillColor=#dae8fc;strokeColor=#6c8ebf;" vertex="1" parent="JoC722UquPzWMbg3fsc--14">
          <mxGeometry x="420" y="80" width="120" height="60" as="geometry" />
        </mxCell>
      </root>
    </mxGraphModel>
  </diagram>
  <diagram id="kUtqUMg_Gv7yxExVUCds" name="Page-2">
    <mxGraphModel dx="1007" dy="750" grid="1" gridSize="10" guides="1" tooltips="1" connect="1" arrows="1" fold="1" page="1" pageScale="1" pageWidth="1100" pageHeight="850" math="0" shadow="0">
      <root>
        <mxCell id="0" />
        <mxCell id="1" value="red" parent="0" />
        <mxCell id="STVam3jDksx5knhV-jY2-5" value="" style="ellipse;whiteSpace=wrap;html=1;fillColor=#f8cecc;strokeColor=#b85450;" vertex="1" parent="1">
          <mxGeometry x="180" y="140" width="120" height="80" as="geometry" />
        </mxCell>
        <mxCell id="STVam3jDksx5knhV-jY2-1" value="green" parent="0" />
        <mxCell id="STVam3jDksx5knhV-jY2-4" value="" style="ellipse;whiteSpace=wrap;html=1;fillColor=#d5e8d4;strokeColor=#82b366;" vertex="1" parent="STVam3jDksx5knhV-jY2-1">
          <mxGeometry x="130" y="160" width="120" height="80" as="geometry" />
        </mxCell>
        <mxCell id="STVam3jDksx5knhV-jY2-2" value="blue" parent="0" />
        <mxCell id="STVam3jDksx5knhV-jY2-3" value="" style="ellipse;whiteSpace=wrap;html=1;fillColor=#dae8fc;strokeColor=#6c8ebf;" vertex="1" parent="STVam3jDksx5knhV-jY2-2">
          <mxGeometry x="120" y="120" width="120" height="80" as="geometry" />
        </mxCell>
      </root>
    </mxGraphModel>
  </diagram>
  <diagram id="Ol1ShGdWYaxpIVCQpWei" name="Page-4">
    <mxGraphModel dx="694" dy="517" grid="1" gridSize="10" guides="1" tooltips="1" connect="1" arrows="1" fold="1" page="1" pageScale="1" pageWidth="1100" pageHeight="850" math="0" shadow="0">
      <root>
        <mxCell id="0" />
        <mxCell id="tdH9gQa4txSqcUITZ9Hg-7" value="red blue" parent="0" />
        <mxCell id="tdH9gQa4txSqcUITZ9Hg-11" style="edgeStyle=orthogonalEdgeStyle;rounded=0;orthogonalLoop=1;jettySize=auto;html=1;jumpStyle=arc;" edge="1" parent="tdH9gQa4txSqcUITZ9Hg-7" source="tdH9gQa4txSqcUITZ9Hg-3" target="tdH9gQa4txSqcUITZ9Hg-4">
          <mxGeometry relative="1" as="geometry" />
        </mxCell>
        <mxCell id="tdH9gQa4txSqcUITZ9Hg-3" value="" style="rhombus;whiteSpace=wrap;html=1;rounded=1;fillColor=#f8cecc;strokeColor=#b85450;" vertex="1" parent="tdH9gQa4txSqcUITZ9Hg-7">
          <mxGeometry x="240" y="100" width="80" height="80" as="geometry" />
        </mxCell>
        <mxCell id="tdH9gQa4txSqcUITZ9Hg-4" value="" style="shape=hexagon;perimeter=hexagonPerimeter2;whiteSpace=wrap;html=1;fixedSize=1;rounded=1;fillColor=#dae8fc;strokeColor=#6c8ebf;" vertex="1" parent="tdH9gQa4txSqcUITZ9Hg-7">
          <mxGeometry x="220" y="320" width="120" height="80" as="geometry" />
        </mxCell>
        <mxCell id="1" value="yellow orange" parent="0" />
        <mxCell id="tdH9gQa4txSqcUITZ9Hg-10" style="edgeStyle=orthogonalEdgeStyle;rounded=0;orthogonalLoop=1;jettySize=auto;html=1;entryX=0;entryY=0.5;entryDx=0;entryDy=0;jumpStyle=arc;" edge="1" parent="1" source="tdH9gQa4txSqcUITZ9Hg-1" target="tdH9gQa4txSqcUITZ9Hg-2">
          <mxGeometry relative="1" as="geometry" />
        </mxCell>
        <mxCell id="tdH9gQa4txSqcUITZ9Hg-1" value="" style="whiteSpace=wrap;html=1;aspect=fixed;rounded=1;fillColor=#fff2cc;strokeColor=#d6b656;" vertex="1" parent="1">
          <mxGeometry x="120" y="200" width="80" height="80" as="geometry" />
        </mxCell>
        <mxCell id="tdH9gQa4txSqcUITZ9Hg-2" value="" style="ellipse;whiteSpace=wrap;html=1;aspect=fixed;fillColor=#ffe6cc;strokeColor=#d79b00;" vertex="1" parent="1">
          <mxGeometry x="360" y="200" width="80" height="80" as="geometry" />
        </mxCell>
      </root>
    </mxGraphModel>
  </diagram>
  <diagram id="YCOgJRPSRdU_MX7I2vDD" name="Page-5">
    <mxGraphModel dx="901" dy="701" grid="1" gridSize="10" guides="1" tooltips="1" connect="1" arrows="1" fold="1" page="1" pageScale="1" pageWidth="1100" pageHeight="850" math="0" shadow="0">
      <root>
        <mxCell id="0" />
        <mxCell id="1" parent="0" />
        <mxCell id="XRukzfeOlYcVAEqMc2u1-2" value="" style="shape=cube;whiteSpace=wrap;html=1;boundedLbl=1;backgroundOutline=1;darkOpacity=0.05;darkOpacity2=0.1;fillColor=#d5e8d4;strokeColor=#82b366;" parent="1" vertex="1">
          <mxGeometry x="80" y="320" width="120" height="80" as="geometry" />
        </mxCell>
        <mxCell id="XRukzfeOlYcVAEqMc2u1-3" value="" style="shape=cube;whiteSpace=wrap;html=1;boundedLbl=1;backgroundOutline=1;darkOpacity=0.05;darkOpacity2=0.1;fillColor=#dae8fc;strokeColor=#6c8ebf;" parent="1" vertex="1">
          <mxGeometry x="280" y="280" width="120" height="120" as="geometry" />
        </mxCell>
        <mxCell id="XRukzfeOlYcVAEqMc2u1-4" value="" style="shape=cube;whiteSpace=wrap;html=1;boundedLbl=1;backgroundOutline=1;darkOpacity=0.05;darkOpacity2=0.1;fillColor=#f8cecc;strokeColor=#b85450;" parent="1" vertex="1">
          <mxGeometry x="480" y="240" width="120" height="160" as="geometry" />
        </mxCell>
        <mxCell id="eQEa_7_fb5I7M20JwWeh-1" value="" style="shape=stencil(lVnZchs5DPwavaJAgheec/xHquKsVevYKcfZ4+8XXBUnQ1DTk7xJI7ZIAg2ggbnIu++Pn749XCJ/f3t9+fPh7+vnt8eLvL/EeH1+fHi9vtmni3y4yLsvL68Pf7y+/Hj+fPv+7VNf2T99ffmr/8M/NxxTrR0U+d/tAf//4ONt+dP1ebc8UorTcqWWjpcn4nl5qFTi8fpCgaf19iTL8fpGVab1Uii24/UhkKYJkGyDAgCZ6nyDXKgEYCAmng1aMpUKAGn8PADVDgnuYCYPbQYkyvkYIDJOvAMkBYBKbb503fx+382ByuyH0qiBO6REOu9QEgnwQ9p4s/lBScClk1IpM8B2AFTKgdhRQ6GnDVBnP6RMGcROjsSzlZI9AX6wHZwfjN6K7xDzDIiQS5kpzXeQQAkF9BbvG0CoYj8EF6IVU6NRmu+QhCIwq1FD1TsuYECd75AzBeCHTr7ZSrmR4B3KfKRiZgWO60dyWSNhK9UlgMxuIM2YWcMcDz3NIMe1QeYNkElAPBjA5dbaYG41N+X5Di3A6mBslflILUGz5o3MG6BSRDEtFGbyNSM82sGS+7yDRgrAD8Yc5zhNFFBJtAieHacZ5qVSlyOVEVJ3AZbcHfkMUEASML9y9gABbG2LWfsdADXaEg+Ka5yG5dICY9r+z9UH3bLtfUAdymIDGB2BldToPZfdtsmVI0DJCwDv4CqQAVB9MECb85LROyIrqSefASqgd2DTP7yYCZ/JpW8DKOB3BzhX45qlS83qrgaX6HZ1MRpH9jx0dfMApEMN4IpcB+BLS/R3QOnbAHEBwAhSXyAMwNhxwZnV1AS2UljIpKCM9juIBwimqywAxjskd6QG+d1jlBcAdpwTGwZo2A9tKUEBA1w8tO2Qvx5xAQTQ/aCuKFkuecPIFLFdW/OAs9zndsBiuntOPCBiuv4moA5y7moQDIg0pPOuyikChNGc7wsvrqOug7BDIrneK7XzQ4Mx2rWA84PCfrerjRmwo9ehoGG/RQOuNsnkyaRnoqyxNxOaa5jsS4vGYtRoxcURMoTgkdZ1pVpPWgj1rVxrsB3tjZbLfXm0wIdNistMASogA7j8XStlBCjL4EFGZT0CuBaiKBwYGUBmx5UMZyEGcHewVu5kB1d4cx0y7RAwe7pPKlBnZnJ+FpYZK6ZuJdchV8ylMpqeDZCgFrD/c11+YtjKGcB1l1LxiGlpeCUNwh/RW5bRRkWe1mGTbfhYh4I/CtG6TCvR4KHPc2byxQY9bVnD6co+z0ETo7iMZ/IZQOdGSxTOEfoOMyAJnqstI+N0YtbgY7oPzpBZ2bejFnEI0LnkYjriAVD2ytVqkiC2blTbT1uAlYz96ma0GaaZPtR1qRKP1qOOArUHAPLF5OOhpkGW+zJR/TS+z6SAWUP285ysZ+N7V7KSwrLbRlO1sbuNUd59Kg2b7wK0ASaJz8RBYa4Pi/YJUMmw91mEMwr2A+YIBz+Lqo8jkH5tOZ7W8fLuB45x2etIPrmqKzgMqcaeCPYACBEek86fyxkwnz0NsKBlPxhiWFzZv75hKGaXqsSwZ/7NF4Cny+3Dz3eNX65PT7dXlfvf/btJe3R7rykf/gM=);lineShape=1;" vertex="1" parent="1">
          <mxGeometry x="235.5894064286233" y="491.58610690619844" width="331.13310409750784" height="80.29620599095438" as="geometry" />
        </mxCell>
        <mxCell id="eQEa_7_fb5I7M20JwWeh-2" value="" style="shape=stencil(lVnLchs5DPwaXVEkQJDgOcn+R6rirFVx7JTj7OPvF7MKJ0NQalVu0og9JF6NBnWSd98fP357OHH6/vb68uXh7/Ont8eTvD8xn58fH17Pb/7pJB9O8u7zy+vDn68vP54/Xb5/+7it3D59fflre8M/F1yhzhuI07+XB0rF/n/wx2X50/n5sFyp9Wl5ZtJye30bv471LNTA+ztpndZLpgrev20/n186pQ4AGncohXIDgP19O6ASAxOYKWsE/HxyHaDDxMORegIAW2zgEcarAHdiCUfCbhWmOu+gDhAAULKQR0odAEoaXt8BnRrwUpGYqTVTQzsYcZoBTA1EWpmsRUBFgLbskEnzbUBNpBqNriBbq8TA+SsMJF/VxYZKBnKpdsoyAVomBkdqTGXeoRUSkHytRhv8SQJutUR9AZQKAEo8F1BTGDgz6iXakIHRPS8AzyXg1l4iUbZEFaS3AypHQEdH0liiHkoFceh7IhwADEigt8FChyNlRN5GptFLDEq0L3TvgYNx6EscDLLGBpiz1Rh7qQ+e2wF1VMgto/tsg/V7XkrzDp5dAtLbAxeM7l6DKHAaI+0AAby0ZWvY4U7yCVkw2qiiehDiOTW8aAsCeEezGYDp3ndIM6C1EftbAF1IALG3e+mnEw9U2VAuKclScYi9PdKFI4CRlxZ95QDopUU6uA0Fl6jU6KWMCyiSQIMVl1OiNLvJQ80ocn1oyB1QcKjdi3PkPF0h9Vm02gsC8sxVwJ0anW3wfETqZCuIUNSeXiCZnIZCjXp6NdxGg4Zzq2DfzZTmUHes4Zzd+xyHQ/CvI1LMpu1MYAuXO3VxU0YCSJbIZQxIJKFDKExwl4mByrxpGag53eXOofGiItUaRZwaHuMapTkQrpYb4D7XqXnOjYI7hEtnneMgbZDbLeUq8w4+ySERV51WZrf6nJWQ+rY4K7obBO3gnTrQsd2zIRjdDPL3NsLMMtFryoBbt1wKfVTgnKVCOXRqPyQwurQR14MAEsBkPpgFL9l+S3B9VrQR1wN9IxKQshidoZ7xedcWmZjQCG5Ddh6UKyIBn9kDG3vsUc/iMn7ek69ArmSJk1zBM4rvEJSrT/GIZrjGimM8yXEf5bLTtw1Cv3WNEPRM7vBmQ3RMhvuRDComqVFMO2socKvvEAYCxdwqe30dLypQpHssoFpgxfFC997E0HDJHDvQL6a6LrFsEaIN3gpkz6WZWzdqA5HO+8XH4SoEjX4Ws1t1DMDXmXJw0KFhoZsTr5WwPkGf5tij/YQC8igNmj6UAjpPipeC7jGkrRZN3GFDX5Y3OCEup1EoqtJ42V5k8C4jRfZlODHk4eixPI2J+lakJCxHUp7jhIQFp0TPpDG43ljeOJ4dhKmMmjh4BrXWhdGhIvrNu/y7y/3Dr78NPp+fni7/Ohx/j38z+KPLXxTy4T8=);lineShape=1;" vertex="1" parent="1">
          <mxGeometry x="196.35188035407077" y="572.2831512649395" width="380.96864096158697" height="114.70176023774093" as="geometry" />
        </mxCell>
        <mxCell id="XRukzfeOlYcVAEqMc2u1-1" value="markup" parent="0" />
      </root>
    </mxGraphModel>
  </diagram>
</mxfile>
